<?xml version="1.0" encoding="utf-8"?>
<!-- Generator: Adobe Illustrator 28.0.0, SVG Export Plug-In . SVG Version: 6.00 Build 0)  -->
<svg version="1.1" id="레이어_1" xmlns="http://www.w3.org/2000/svg" xmlns:xlink="http://www.w3.org/1999/xlink" x="0px"
	 y="0px" viewBox="0 0 16 16" style="enable-background:new 0 0 16 16;" xml:space="preserve">
<style type="text/css">
	.st0{fill:#5D6E51;stroke:#B6926E;stroke-width:0.5;stroke-miterlimit:10;}
	.st1{fill:none;stroke:#FCF9E0;stroke-width:0.25;stroke-miterlimit:10;}
	.st2{fill:#5D6E51;stroke:#FCF9E0;stroke-width:0.25;stroke-miterlimit:10;}
</style>
<g>
	<circle class="st0" cx="8" cy="8" r="7.5"/>
	<g>
		<g>
			<line class="st1" x1="5.3" y1="8.7" x2="3.8" y2="8.7"/>
			<circle class="st1" cx="2.5" cy="8.7" r="1.3"/>
		</g>
		<g>
			<line class="st1" x1="10.6" y1="8.7" x2="13.3" y2="8.7"/>
			<circle class="st1" cx="14" cy="8.7" r="0.7"/>
		</g>
		<g>
			<line class="st1" x1="7.7" y1="7" x2="7.7" y2="4"/>
			<circle class="st1" cx="7.7" cy="2.8" r="1"/>
		</g>
		<path class="st2" d="M9.9,6.8H5.8c-0.4,0-0.7,0.3-0.7,0.7V10c0,0.4,0.3,0.7,0.7,0.7h1l0.7,1.2l1-1.2h1.4c0.4,0,0.7-0.3,0.7-0.7
			V7.5C10.6,7.1,10.3,6.8,9.9,6.8z"/>
	</g>
</g>
</svg>
